<?xml version="1.0" standalone="no"?>
<!DOCTYPE svg PUBLIC "-//W3C//DTD SVG 20010904//EN"
 "http://www.w3.org/TR/2001/REC-SVG-20010904/DTD/svg10.dtd">
<svg version="1.0" xmlns="http://www.w3.org/2000/svg"
 width="1280.000000pt" height="720.000000pt" viewBox="0 0 1280.000000 720.000000"
 preserveAspectRatio="xMidYMid meet">
<metadata>
Created by potrace 1.15, written by Peter Selinger 2001-2017
</metadata>
<g transform="translate(0.000000,720.000000) scale(0.100000,-0.100000)"
fill="#000000" stroke="none">
<path d="M6265 7194 c-16 -2 -77 -9 -135 -15 -106 -11 -194 -23 -392 -55 -91
-14 -119 -23 -182 -59 -96 -54 -140 -92 -212 -185 -152 -192 -264 -395 -340
-617 l-39 -113 -60 -20 c-238 -79 -308 -275 -183 -511 28 -54 29 -59 19 -115
-26 -137 -6 -254 59 -350 30 -45 30 -46 30 -180 0 -73 -4 -134 -8 -134 -4 0
-37 20 -72 45 -35 25 -78 48 -97 51 -79 15 -151 -66 -194 -219 -18 -67 -23
-108 -23 -222 -1 -128 3 -157 41 -338 23 -108 40 -203 38 -210 -3 -6 11 -39
31 -73 65 -110 151 -141 243 -89 24 14 45 24 47 22 2 -1 8 -45 14 -97 13 -104
63 -341 87 -406 12 -35 13 -61 4 -170 -24 -293 -31 -408 -32 -575 l-1 -176
-79 -32 c-43 -18 -100 -48 -126 -66 -53 -38 -115 -69 -174 -87 -22 -6 -76 -42
-122 -80 -85 -70 -173 -119 -261 -143 -44 -12 -105 -33 -276 -96 -19 -7 -73
-26 -120 -42 -337 -117 -565 -219 -664 -298 -39 -30 -84 -64 -101 -75 -16 -10
-102 -73 -190 -139 -193 -144 -407 -354 -470 -461 -47 -80 -127 -270 -194
-464 -16 -47 -38 -110 -49 -140 -45 -125 -62 -187 -62 -222 l0 -38 4165 0
c3960 0 4165 1 4165 18 0 26 -35 151 -58 209 -45 111 -154 314 -230 428 -69
105 -98 137 -230 258 -83 76 -172 163 -198 193 -52 61 -99 96 -324 247 -225
151 -335 215 -615 358 -242 124 -256 133 -420 265 -94 75 -189 144 -213 155
-51 22 -107 38 -267 75 -111 26 -127 33 -212 91 -51 34 -123 80 -160 102 -113
66 -103 46 -109 219 l-5 152 44 73 c72 118 151 266 191 358 l38 87 48 4 c35 4
59 13 83 34 41 34 87 111 87 145 0 13 12 44 26 69 42 72 169 328 205 415 30
70 34 91 34 165 0 128 -26 198 -88 235 -15 9 -1 26 90 119 93 93 117 111 171
132 69 26 168 97 206 147 47 63 59 99 59 173 -1 105 -36 160 -186 290 l-59 50
16 115 c8 63 18 233 22 379 6 228 4 274 -10 328 -9 35 -16 70 -16 77 0 32 -45
131 -88 195 -51 74 -171 178 -283 245 -35 21 -82 51 -104 66 -64 43 -451 281
-560 344 -191 111 -212 122 -294 153 l-83 32 -281 -1 c-155 -1 -295 -4 -312
-5z"/>
</g>
</svg>
